<?xml version="1.0" standalone="no"?>
<!DOCTYPE svg PUBLIC "-//W3C//DTD SVG 20010904//EN"
 "http://www.w3.org/TR/2001/REC-SVG-20010904/DTD/svg10.dtd">
<svg version="1.0" xmlns="http://www.w3.org/2000/svg"
 width="700.000000pt" height="700.000000pt" viewBox="0 0 700.000000 700.000000"
 preserveAspectRatio="xMidYMid meet">
<metadata>
Created by potrace 1.11, written by Peter Selinger 2001-2013
</metadata>
<g transform="translate(0.000000,700.000000) scale(0.100000,-0.100000)"
fill="#000000" stroke="none">
<path d="M0 3500 l0 -3500 3500 0 3500 0 0 3500 0 3500 -3500 0 -3500 0 0
-3500z m3798 1853 c5 -16 296 -809 647 -1763 350 -954 652 -1777 671 -1828
l33 -92 -286 2 -287 3 -21 55 c-12 30 -77 207 -145 393 l-123 337 -782 0 -783
0 -10 -27 c-5 -16 -65 -181 -132 -368 -67 -187 -127 -352 -132 -368 l-10 -27
-290 0 c-272 0 -290 1 -283 18 4 9 308 836 675 1837 368 1001 672 1828 675
1838 7 16 30 17 290 17 l283 0 10 -27z"/>
<path d="M3487 4568 c-8 -24 -137 -380 -287 -793 -150 -412 -275 -758 -277
-767 -5 -17 27 -18 581 -18 322 0 586 2 586 5 0 7 -581 1609 -584 1613 -2 2
-10 -16 -19 -40z"/>
</g>
</svg>
